<svg xmlns="http://www.w3.org/2000/svg" width="96" height="96" viewBox="0 0 96 96" fill="none">
    <path d="M68 44H72C73.0609 44 74.0783 43.5786 74.8284 42.8284C75.5786 42.0783 76 41.0609 76 40V36C76 34.9391 75.5786 33.9217 74.8284 33.1716C74.0783 32.4214 73.0609 32 72 32H68C66.9391 32 65.9217 32.4214 65.1716 33.1716C64.4214 33.9217 64 34.9391 64 36V40C64 41.0609 64.4214 42.0783 65.1716 42.8284C65.9217 43.5786 66.9391 44 68 44ZM24 48H44C45.0609 48 46.0783 47.5786 46.8284 46.8284C47.5786 46.0783 48 45.0609 48 44C48 42.9391 47.5786 41.9217 46.8284 41.1716C46.0783 40.4214 45.0609 40 44 40H24C22.9391 40 21.9217 40.4214 21.1716 41.1716C20.4214 41.9217 20 42.9391 20 44C20 45.0609 20.4214 46.0783 21.1716 46.8284C21.9217 47.5786 22.9391 48 24 48ZM88 16H8C6.93913 16 5.92172 16.4214 5.17157 17.1716C4.42143 17.9217 4 18.9391 4 20V76C4 77.0609 4.42143 78.0783 5.17157 78.8284C5.92172 79.5786 6.93913 80 8 80H88C89.0609 80 90.0783 79.5786 90.8284 78.8284C91.5786 78.0783 92 77.0609 92 76V20C92 18.9391 91.5786 17.9217 90.8284 17.1716C90.0783 16.4214 89.0609 16 88 16ZM84 72H12V24H84V72ZM24 64H44C45.0609 64 46.0783 63.5786 46.8284 62.8284C47.5786 62.0783 48 61.0609 48 60C48 58.9391 47.5786 57.9217 46.8284 57.1716C46.0783 56.4214 45.0609 56 44 56H24C22.9391 56 21.9217 56.4214 21.1716 57.1716C20.4214 57.9217 20 58.9391 20 60C20 61.0609 20.4214 62.0783 21.1716 62.8284C21.9217 63.5786 22.9391 64 24 64Z" fill="#8B95A1"/>
</svg>