<svg width="1985" height="769" viewBox="0 0 1985 769" fill="none" xmlns="http://www.w3.org/2000/svg">
<g clip-path="url(#clip0_2481_2583)">
<g clip-path="url(#clip1_2481_2583)">
<path d="M273.047 -19.1543H1711.95V391C1711.95 432.421 1678.37 466 1636.95 466H348.047C306.625 466 273.047 432.421 273.047 391V-19.1543Z" stroke="#EFF1F3" stroke-width="10"/>
</g>
<path d="M940.464 497.3H859.718V376.877L780.695 429.416C763.856 440.591 753.742 459.494 753.742 479.676V604.713V654.028H899.619V607.882C922.181 607.882 940.409 589.591 940.409 567.074V497.3H940.464Z" fill="#A4AFBE" stroke="#EFF1F3" stroke-width="10" stroke-miterlimit="10" stroke-linecap="round" stroke-linejoin="round"/>
<path d="M1109.24 572.912H877C861.551 572.912 848.992 560.347 848.992 544.891V168.666C848.992 153.21 861.551 140.646 877 140.646H1109.24C1124.68 140.646 1137.24 153.21 1137.24 168.666V544.891C1137.3 560.403 1124.74 572.912 1109.24 572.912Z" fill="#A4AFBE" stroke="#EFF1F3" stroke-width="10" stroke-miterlimit="10" stroke-linecap="round" stroke-linejoin="round"/>
<path d="M1070.95 527.434H907.513C901.4 527.434 896.398 522.43 896.398 516.314V410.847C896.398 404.731 901.4 399.728 907.513 399.728H1070.95C1077.06 399.728 1082.06 404.731 1082.06 410.847V516.314C1082.06 522.486 1077.06 527.434 1070.95 527.434Z" fill="#A4AFBE" stroke="#EFF1F3" stroke-width="10" stroke-miterlimit="10" stroke-linecap="round" stroke-linejoin="round"/>
<path d="M928.07 654.084H725.344V694.114H928.07V654.084Z" fill="#A4AFBE" stroke="#EFF1F3" stroke-width="10" stroke-miterlimit="10" stroke-linecap="round" stroke-linejoin="round"/>
<path d="M705.672 761.779V694.113H947.744V761.779" stroke="#EFF1F3" stroke-width="10" stroke-miterlimit="10" stroke-linecap="round" stroke-linejoin="round"/>
<path d="M1078.4 312.051H1020.6" stroke="#EFF1F3" stroke-width="10" stroke-miterlimit="10" stroke-linecap="round" stroke-linejoin="round"/>
<path d="M1078.4 336.236H1020.6" stroke="#EFF1F3" stroke-width="10" stroke-miterlimit="10" stroke-linecap="round" stroke-linejoin="round"/>
<path d="M1078.4 360.421H1020.6" stroke="#EFF1F3" stroke-width="10" stroke-miterlimit="10" stroke-linecap="round" stroke-linejoin="round"/>
<path d="M1078.4 287.811H1020.6" stroke="#EFF1F3" stroke-width="10" stroke-miterlimit="10" stroke-linecap="round" stroke-linejoin="round"/>
<path d="M1078.4 263.626H1020.6" stroke="#EFF1F3" stroke-width="10" stroke-miterlimit="10" stroke-linecap="round" stroke-linejoin="round"/>
<path d="M1078.4 239.386H1020.6" stroke="#EFF1F3" stroke-width="10" stroke-miterlimit="10" stroke-linecap="round" stroke-linejoin="round"/>
<path d="M1078.4 215.201H1020.6" stroke="#EFF1F3" stroke-width="10" stroke-miterlimit="10" stroke-linecap="round" stroke-linejoin="round"/>
<path d="M1078.4 191.017H1020.6" stroke="#EFF1F3" stroke-width="10" stroke-miterlimit="10" stroke-linecap="round" stroke-linejoin="round"/>
<path d="M859.176 582.5L891.781 549.895C912.231 529.435 912.231 496.299 891.781 475.895L953.466 414.183C963.247 404.398 963.247 388.441 953.466 378.656C943.685 368.871 927.736 368.871 917.955 378.656L856.27 440.369L790.195 506.474" fill="#A4AFBE"/>
<path d="M859.176 582.5L891.781 549.895C912.231 529.435 912.231 496.299 891.781 475.895L953.466 414.183C963.247 404.398 963.247 388.441 953.466 378.656C943.685 368.871 927.736 368.871 917.955 378.656L856.27 440.369L790.195 506.474" stroke="#EFF1F3" stroke-width="10" stroke-miterlimit="10" stroke-linecap="round" stroke-linejoin="round"/>
<path d="M1263.68 369.705C1260.95 369.705 1258.17 368.982 1255.67 367.426C1248.45 363.033 1246.17 353.582 1250.56 346.299C1265.06 322.503 1272.79 295.149 1272.79 267.24C1272.79 239.275 1265.12 211.976 1250.56 188.181C1246.11 180.953 1248.39 171.502 1255.67 167.054C1262.9 162.662 1272.34 164.886 1276.79 172.169C1294.3 200.746 1303.52 233.659 1303.52 267.24C1303.52 300.82 1294.3 333.678 1276.85 362.311C1273.9 367.092 1268.84 369.705 1263.68 369.705Z" fill="#EFF1F3"/>
<path d="M1202.04 340.349C1199.38 340.349 1196.71 339.682 1194.26 338.181C1186.98 333.844 1184.54 324.448 1188.87 317.165C1197.88 301.987 1202.6 284.697 1202.6 267.295C1202.6 249.893 1197.82 232.602 1188.82 217.424C1184.48 210.141 1186.93 200.69 1194.21 196.409C1201.49 192.072 1210.94 194.518 1215.22 201.801C1227 221.761 1233.28 244.389 1233.28 267.35C1233.28 290.256 1227.05 312.94 1215.22 332.899C1212.44 337.625 1207.32 340.349 1202.04 340.349Z" fill="#EFF1F3"/>
<path d="M721.848 369.705C724.571 369.705 727.35 368.982 729.851 367.426C737.075 363.033 739.353 353.582 734.963 346.299C720.459 322.503 712.734 295.149 712.734 267.24C712.734 239.275 720.403 211.976 734.963 188.181C739.409 180.953 737.131 171.502 729.851 167.054C722.626 162.662 713.179 164.886 708.733 172.169C691.228 200.746 682.003 233.659 682.003 267.24C682.003 300.82 691.228 333.678 708.678 362.311C711.623 367.092 716.68 369.705 721.848 369.705Z" fill="#EFF1F3"/>
<path d="M783.479 340.349C786.146 340.349 788.814 339.682 791.259 338.181C798.539 333.844 800.984 324.448 796.649 317.165C787.647 301.987 782.923 284.697 782.923 267.295C782.923 249.893 787.702 232.602 796.705 217.424C801.039 210.141 798.594 200.69 791.314 196.409C784.034 192.072 774.587 194.518 770.308 201.801C758.527 221.761 752.247 244.389 752.247 267.35C752.247 290.256 758.471 312.94 770.308 332.899C773.087 337.625 778.199 340.349 783.479 340.349Z" fill="#EFF1F3"/>
<path d="M912.625 191.017V335.902" stroke="#EFF1F3" stroke-width="10" stroke-miterlimit="10" stroke-linecap="round" stroke-linejoin="round"/>
<path d="M958.086 191.017V335.902" stroke="#EFF1F3" stroke-width="10" stroke-miterlimit="10" stroke-linecap="round" stroke-linejoin="round"/>
</g>
<defs>
<clipPath id="clip0_2481_2583">
<rect width="1985" height="769" fill="white"/>
</clipPath>
<clipPath id="clip1_2481_2583">
<rect width="1985" height="471" fill="white"/>
</clipPath>
</defs>
</svg>
