<svg xmlns="http://www.w3.org/2000/svg" width="96" height="96" viewBox="0 0 96 96" fill="none">
    <path d="M60.3149 50.3658C63.5829 47.7946 65.9682 44.2689 67.139 40.2789C68.3099 36.289 68.208 32.0333 66.8475 28.104C65.4871 24.1747 62.9357 20.7671 59.5485 18.3553C56.1612 15.9435 52.1064 14.6475 47.9482 14.6475C43.7901 14.6475 39.7353 15.9435 36.348 18.3553C32.9607 20.7671 30.4094 24.1747 29.0489 28.104C27.6885 32.0333 27.5866 36.289 28.7574 40.2789C29.9283 44.2689 32.3136 47.7946 35.5816 50.3658C29.9818 52.6093 25.0959 56.3303 21.4445 61.1322C17.7932 65.9341 15.5134 71.6368 14.8482 77.6324C14.8001 78.0702 14.8386 78.5131 14.9616 78.936C15.0847 79.3588 15.2898 79.7533 15.5653 80.0969C16.1216 80.7907 16.9308 81.2352 17.8149 81.3325C18.699 81.4297 19.5854 81.1718 20.2793 80.6154C20.9732 80.0591 21.4177 79.2498 21.5149 78.3658C22.2468 71.8498 25.3539 65.8318 30.2423 61.4618C35.1307 57.0917 41.4579 54.6759 48.0149 54.6759C54.5719 54.6759 60.8991 57.0917 65.7875 61.4618C70.6759 65.8318 73.7829 71.8498 74.5149 78.3658C74.6055 79.1848 74.9963 79.9413 75.6119 80.4892C76.2275 81.037 77.0242 81.3374 77.8482 81.3325H78.2149C79.0887 81.2319 79.8873 80.7901 80.4368 80.1033C80.9862 79.4165 81.242 78.5403 81.1482 77.6658C80.4799 71.6531 78.1878 65.9357 74.5177 61.1265C70.8477 56.3172 65.9379 52.5974 60.3149 50.3658ZM47.9482 47.9991C45.3111 47.9991 42.7333 47.2171 40.5406 45.752C38.348 44.287 36.639 42.2046 35.6298 39.7682C34.6207 37.3319 34.3566 34.651 34.8711 32.0646C35.3856 29.4782 36.6554 27.1024 38.5201 25.2377C40.3848 23.373 42.7606 22.1031 45.347 21.5886C47.9334 21.0742 50.6143 21.3382 53.0507 22.3474C55.487 23.3566 57.5694 25.0655 59.0345 27.2582C60.4996 29.4508 61.2816 32.0287 61.2816 34.6658C61.2816 38.202 59.8768 41.5934 57.3763 44.0939C54.8758 46.5944 51.4845 47.9991 47.9482 47.9991Z" fill="#8B95A1"/>
</svg>